<svg width="24" height="24" viewBox="0 0 24 24" fill="none" xmlns="http://www.w3.org/2000/svg">
<path d="M3.99995 4.00002C3.46952 4.00002 2.96081 4.21073 2.58574 4.5858C2.21067 4.96087 1.99995 5.46958 1.99995 6.00002V10C2.53039 10 3.0391 10.2107 3.41417 10.5858C3.78924 10.9609 3.99995 11.4696 3.99995 12C3.99995 12.5304 3.78924 13.0392 3.41417 13.4142C3.0391 13.7893 2.53039 14 1.99995 14V18C1.99995 18.5304 2.21067 19.0392 2.58574 19.4142C2.96081 19.7893 3.46952 20 3.99995 20H20C20.5304 20 21.0391 19.7893 21.4142 19.4142C21.7892 19.0392 22 18.5304 22 18V14C21.4695 14 20.9608 13.7893 20.5857 13.4142C20.2107 13.0392 20 12.5304 20 12C20 11.4696 20.2107 10.9609 20.5857 10.5858C20.9608 10.2107 21.4695 10 22 10V6.00002C22 5.46958 21.7892 4.96087 21.4142 4.5858C21.0391 4.21073 20.5304 4.00002 20 4.00002H3.99995ZM15.5 7.00001L17 8.50001L8.49996 17L6.99996 15.5L15.5 7.00001ZM8.80996 7.04001C9.78996 7.04001 10.58 7.83002 10.58 8.81002C10.58 9.27945 10.3935 9.72965 10.0615 10.0616C9.7296 10.3935 9.27939 10.58 8.80996 10.58C7.82996 10.58 7.03996 9.79002 7.03996 8.81002C7.03996 8.34058 7.22644 7.89038 7.55838 7.55844C7.89032 7.2265 8.34052 7.04001 8.80996 7.04001ZM15.19 13.42C16.17 13.42 16.96 14.21 16.96 15.19C16.96 15.6594 16.7735 16.1097 16.4415 16.4416C16.1096 16.7735 15.6594 16.96 15.19 16.96C14.21 16.96 13.42 16.17 13.42 15.19C13.42 14.7206 13.6064 14.2704 13.9384 13.9384C14.2703 13.6065 14.7205 13.42 15.19 13.42Z" fill="#333333"/>
</svg>
