<svg width="10" height="16" viewBox="0 0 10 16" fill="none" xmlns="http://www.w3.org/2000/svg">
<path d="M7.33337 4.6246C8.04302 5.03407 8.63229 5.62324 9.0419 6.3328C9.45151 7.04236 9.66701 7.84729 9.66671 8.6666V13.9999H6.88671C6.74897 14.3903 6.49355 14.7283 6.15564 14.9674C5.81773 15.2065 5.41398 15.3349 5.00004 15.3349C4.5861 15.3349 4.18235 15.2065 3.84444 14.9674C3.50653 14.7283 3.25111 14.3903 3.11337 13.9999H0.333374V8.6666C0.333075 7.84729 0.548573 7.04236 0.958184 6.3328C1.36779 5.62324 1.95707 5.03407 2.66671 4.6246C2.55717 4.42785 2.47315 4.21793 2.41671 3.99993H0.333374V2.6666H2.41737C2.56567 2.09444 2.89976 1.58772 3.3672 1.22598C3.83464 0.864243 4.40898 0.667969 5.00004 0.667969C5.59111 0.667969 6.16544 0.864243 6.63288 1.22598C7.10033 1.58772 7.43442 2.09444 7.58271 2.6666H9.66671V3.99993H7.58271C7.52604 4.21993 7.44138 4.42993 7.33404 4.6246H7.33337ZM6.36471 5.6246C5.96537 5.86327 5.49871 5.99993 5.00004 5.99993C4.51956 6.00066 4.0479 5.87093 3.63537 5.6246C3.04887 5.88787 2.551 6.31509 2.20171 6.85481C1.85243 7.39453 1.66663 8.02372 1.66671 8.6666V12.6666H3.00004V9.99993C3.00004 9.4695 3.21075 8.96079 3.58583 8.58572C3.9609 8.21065 4.46961 7.99993 5.00004 7.99993C5.53047 7.99993 6.03918 8.21065 6.41426 8.58572C6.78933 8.96079 7.00004 9.4695 7.00004 9.99993V12.6666H8.33337V8.6666C8.33345 8.02372 8.14765 7.39453 7.79837 6.85481C7.44909 6.31509 6.95121 5.88787 6.36471 5.6246ZM5.00004 9.33327C4.82323 9.33327 4.65366 9.4035 4.52864 9.52853C4.40361 9.65355 4.33337 9.82312 4.33337 9.99993V13.3333C4.33337 13.5101 4.40361 13.6796 4.52864 13.8047C4.65366 13.9297 4.82323 13.9999 5.00004 13.9999C5.17685 13.9999 5.34642 13.9297 5.47145 13.8047C5.59647 13.6796 5.66671 13.5101 5.66671 13.3333V9.99993C5.66671 9.82312 5.59647 9.65355 5.47145 9.52853C5.34642 9.4035 5.17685 9.33327 5.00004 9.33327ZM5.00004 4.6666C5.35366 4.6666 5.6928 4.52612 5.94285 4.27607C6.1929 4.02603 6.33337 3.68689 6.33337 3.33327C6.33337 2.97964 6.1929 2.6405 5.94285 2.39046C5.6928 2.14041 5.35366 1.99993 5.00004 1.99993C4.64642 1.99993 4.30728 2.14041 4.05723 2.39046C3.80718 2.6405 3.66671 2.97964 3.66671 3.33327C3.66671 3.68689 3.80718 4.02603 4.05723 4.27607C4.30728 4.52612 4.64642 4.6666 5.00004 4.6666Z" fill="#868686"/>
</svg>
